<svg width="49" height="57" viewBox="0 0 49 57" fill="none" xmlns="http://www.w3.org/2000/svg">
<g clip-path="url(#clip0)">
<path opacity="0.64" d="M8.09998 29.6C9.39998 28.7 10.8 27.9 12.3 27.1L10.9 21.6C10.8 21.4 10.7 21.3 10.6 21.1C9.69998 19.7 8.39998 17.3 7.99998 15.7C7.69998 14.4 7.49998 13.2 7.39998 12.1C7.19998 12 7.09998 11.8 6.99998 11.7L5.99998 9.40002C4.89998 7.20002 3.29998 5.00002 3.29998 5.00002L19.2 0.400024L29.7 6.20002C29.7 6.20002 29.7 6.30002 29.7 6.40002V6.50002C29.7 6.50002 29.7 6.50002 29.7 6.60002C29.7 6.60002 29.7 6.60002 29.7 6.70002V6.80002V6.90002C29.7 6.90002 29.7 6.90002 29.7 7.00002V7.10002C29.7 7.10002 29.7 7.10002 29.7 7.20002V7.30002C29.7 7.30002 29.7 7.30002 29.7 7.40002V7.50002C29.7 7.50002 29.7 7.50002 29.7 7.60002V7.70002V7.80002V7.90002V8.00002V8.10002V8.20002V8.30002V8.40002V8.50002V8.60003V8.70002V8.80002V8.90002V9.00002V9.10003V9.20002V9.30002V9.40002V9.90002C31.4 10.8 32.8 11.6 33.3 12C34.1 12.6 34.5 13.1 34.6 13.7C34.8 14.3 34.8 14.9 34.4 15.5C33.3 17.1 31.2 18.8 28.9 19.7C29 20.3 29.1 20.9 29.1 21.4C29.2 21.4 29.3 21.4 29.3 21.4H29.4C29.5 21.4 29.6 21.4 29.7 21.4H29.8C29.9 21.4 30 21.4 30.1 21.4H30.2C30.3 21.4 30.5 21.4 30.6 21.4H30.7C30.8 21.4 30.9 21.4 31 21.4H31.1C31.2 21.4 31.4 21.4 31.5 21.4C31.6 21.4 31.8 21.4 31.9 21.4H32C32.1 21.4 32.3 21.4 32.4 21.4C32.4 21.4 32.4 21.4 32.5 21.4C32.6 21.4 32.8 21.4 32.9 21.5C33 21.5 33.2 21.5 33.3 21.6C33.3 21.6 33.3 21.6 33.4 21.6C33.7 21.7 34 21.7 34.3 21.8C34.4 21.8 34.6 21.9 34.7 21.9C35 22 35.3 22.1 35.6 22.2C35.9 22.3 36.2 22.5 36.5 22.6C36.6 22.7 36.8 22.8 36.9 22.8C37.2 23 37.5 23.2 37.8 23.4C38.1 23.6 38.4 23.8 38.6 24.1C38.7 24.2 38.9 24.3 39 24.5C40.9 26.4 42.5 29.3 43.6 33.6C44.1 35.4 43.8 34.3 44.5 37C44.7 37.8 44.7 38.7 44.6 39.4C42.2 53.4 19.2 57.8 7.49998 55.5C6.39998 55.3 5.29998 54.7 4.29998 54C4.19998 53.9 3.99998 53.8 3.89998 53.7C3.89998 53.7 3.89998 53.7 3.79998 53.6C3.49998 53.3 3.19998 53 2.99998 52.7C2.99998 52.7 2.99998 52.6 2.89998 52.6C2.79998 52.5 2.69998 52.4 2.59998 52.2C2.59998 52.1 2.49998 52.1 2.49998 52C2.39998 51.9 2.39998 51.8 2.29998 51.7C2.29998 51.6 2.19998 51.6 2.19998 51.5C2.09998 52 1.99998 51.8 1.99998 51.7C1.99998 51.6 1.89998 51.6 1.89998 51.5C1.79998 51.4 1.79998 51.3 1.79998 51.1C1.79998 51 1.79998 51 1.69998 50.9C1.59998 50.7 1.59998 50.5 1.49998 50.4L0.499979 46.4C-1.40002 38.9 1.89998 33.8 8.09998 29.6Z" fill="url(#paint0_linear)"/>
<path d="M2.19995 46.5V50.5C2.19995 53.2 4.09995 55.5 6.69995 56C17.9 58.2999 42.2999 53.9 48.2 39.7C48.5 38.9 48.7 38.1 48.7 37.3C48.7 34.5 48.7 35.7 48.7 33.9C48.7 19.5 38.7999 20.7 32.7 22.1C27 23.4 20 26.1 14.1 29.5C6.79995 33.7 2.19995 38.8 2.19995 46.5Z" fill="url(#paint1_linear)"/>
<path opacity="0.3" d="M3.00005 51.3999V47.3999C3.00005 39.7999 7.60005 34.5999 14.9 30.3999C20.7 26.9999 27.8 24.3999 33.5 22.9999C37.5 22.0999 43.1 21.2999 46.5 24.7999C43.2001 20.2999 37.1 21.1999 32.8 22.1999C27.1 23.4999 20.1 26.1999 14.2 29.5999C6.90005 33.7999 2.30005 38.9999 2.30005 46.5999V50.5999C2.30005 52.1999 2.90005 53.5999 4.00005 54.5999C3.30005 53.5999 3.00005 52.4999 3.00005 51.3999Z" fill="#0D8599"/>
<path d="M26.5 33.7C21.6 35.2 19 32.5 19 28.9V18.2C19 14.6 21.9 11.7 25.5 11.7C29.1 11.7 32 14.6 32 18.2V24.3C32 27.9 31.4 32.2 26.5 33.7Z" fill="url(#paint2_linear)"/>
<path opacity="0.9" d="M11.5999 52.5999C11.5999 46.2999 14.9999 42.0999 20.4999 38.5999C24.8999 35.7999 30.1999 33.5999 34.3999 32.4999C38.9999 31.2999 46.3999 30.3999 46.3999 42.1999C46.3999 42.5999 46.3999 42.7999 46.3999 42.9999C39.4999 52.9999 22.6999 56.9999 11.5999 56.5999C11.5999 56.3999 11.5999 56.1999 11.5999 55.8999V52.5999Z" fill="#07A9AD"/>
<path d="M17.8999 16.4999C17.8999 9.49993 22.1999 3.79993 27.4999 3.79993C32.7999 3.79993 37.0999 9.49993 37.0999 16.4999C37.0999 23.4999 35.2999 29.1999 29.9999 29.1999C24.6999 29.1999 17.8999 23.4999 17.8999 16.4999Z" fill="url(#paint3_linear)"/>
<path d="M27.3999 3.49995C32.8999 3.29995 38.8999 6.49995 36.2999 11.5C32.2999 14.5 26.6999 13.3 24.2999 12.9C22.4999 12.6 22.6999 15.3 20.7999 17.1C19.3999 14.2 17.4999 17 19.0999 19.1C19.8999 20.1 19.1999 21 18.6999 21C18.0999 19.6 17.3999 17.1 17.3999 15.5C17.4999 8.39995 19.7999 3.79995 27.3999 3.49995Z" fill="#A2A4A7"/>
<path d="M16.3 51.1C16.3 48.4 18.6 45.7 21.4 45.1C24.2 44.5 26.5 46.3 26.5 49C26.5 51.7 24.2 54.4 21.4 55C18.6 55.6 16.3 53.8 16.3 51.1Z" fill="url(#paint4_linear)"/>
<path d="M16.7 51.1999C16.7 48.4999 18.9 45.8999 21.5 45.2999C24.2 44.6999 26.2999 46.3999 26.2999 49.0999C26.2999 51.7999 24.1 54.3999 21.5 54.9999C18.9 55.5999 16.7 53.8999 16.7 51.1999Z" fill="url(#paint5_linear)"/>
<path d="M21.5998 45.2999C22.9998 44.9999 24.1998 45.2999 25.0998 45.9999C24.2998 45.4999 23.1998 45.2999 22.0998 45.5999C19.3998 46.1999 17.2998 48.7999 17.2998 51.4999C17.2998 52.7999 17.7998 53.8999 18.6998 54.5999C17.5998 53.8999 16.8998 52.6999 16.8998 51.1999C16.6998 48.4999 18.8998 45.8999 21.5998 45.2999Z" fill="url(#paint6_linear)"/>
<path d="M9.19995 48.8999L9.59995 48.7999V51.9999L9.19995 52.0999V48.8999Z" fill="url(#paint7_linear)"/>
<path d="M9.19995 48.9L9.59995 48.8L3.99995 45.5L3.69995 45.7L9.19995 48.9Z" fill="url(#paint8_linear)"/>
<path d="M3.69995 45.7L9.19995 48.9V52.0999L3.69995 48.9V45.7Z" fill="url(#paint9_linear)"/>
<path d="M20.1001 16C20.1001 16 21.1001 16.6 21.0001 18C20.9001 19.4 20.1001 23.8 22.4001 25.8C24.7001 27.9 28.2001 29.6 31.5001 29C34.5001 28.4 35.7001 25.3 36.2001 24C36.3001 23.7 36.3001 22.9 35.2001 23.2C34.3001 23.5 33.0001 23.7 31.8001 23.7C30.8001 23.7 30.7001 24.6 30.8001 25.1C30.8001 25.3 30.6001 25.4 30.3001 25.4C26.6001 25.4 22.4001 23.1 22.2001 20.4C22.1001 19.1 22.5001 16.6 22.8001 15.1C22.9001 14.3 21.3001 13.1 20.6001 13.5C20.1001 14 20.1001 16 20.1001 16Z" fill="url(#paint10_linear)"/>
<path d="M35.4001 9.19995C36.3001 11.1 36.8001 13.3 36.8001 15.7C36.8001 22.7 35.0001 28.4 29.7001 28.4C25.9001 28.4 23.3001 26.5 22.6001 26C24.9001 28 27.6001 29.2 30.1001 29.2C35.4001 29.2 37.2001 23.5 37.2001 16.5C37.1001 13.8 36.5001 11.3 35.4001 9.19995Z" fill="white"/>
<path d="M38.4 8.79997C40.6 9.89997 42.8 11.4 43.3 11.9C44.3 12.9 44.6 14.2 43.5 15.4C41.7 17.4 38.3 19.5 35.3 20.1C31.8 20.7 28.9 19.6 27 18.6C24.7 17.3 19.7 13.8 18.9 13C18.1 12.2 18.9 11.6 25.4 9.29997C32.9 6.69997 35 7.09997 38.4 8.79997Z" fill="url(#paint11_linear)"/>
<path d="M38.4001 8.80004C40.6001 9.90004 42.8001 11.4 43.3001 11.9C44.3001 12.9 44.6001 13.6 43.5001 14.8C41.7001 16.8 38.3001 18.9 35.3001 19.5C31.8001 20.1 28.9001 19 27.0001 18C24.7001 16.7 21.3001 14.3 20.5001 13.5C19.7001 12.7 20.5001 12.1 27.0001 9.80004C34.4001 7.30004 35.0001 7.10004 38.4001 8.80004Z" fill="url(#paint12_linear)"/>
<path d="M39.6999 11.8C38.8999 13.6 35.9999 15.2 31.7999 15.6C25.6999 16.2 19.2999 14.4 17.3999 11.4C17.3999 9.1 15.3999 4.6 15.3999 4.6L32.5999 0L41.6999 5.9C41.6999 5.9 40.0999 9.7 39.6999 11.8Z" fill="url(#paint13_linear)"/>
<g opacity="0.9">
<path opacity="0.9" d="M30.3001 7.80002C33.3001 7.30002 38.5001 6.40002 41.7001 5.90002C41.6001 6.10002 40.1001 9.80002 39.8001 11.8C39.0001 13.6 36.1001 15.2 31.9001 15.6C29.5001 15.8 27.1001 15.7 24.8001 15.3C24.3001 11.7 25.9001 8.60002 30.3001 7.80002Z" fill="#07A9AD"/>
</g>
<path d="M40.4001 9.39997C39.6001 11.2 36.0001 13.1 31.9001 13.5C25.8001 14.1 19.0001 12 17.1001 9.09998L17.5001 11.5C19.4001 14.4 25.8001 16.3 31.9001 15.7C36.1001 15.3 39.0001 13.8 39.8001 11.9L40.4001 9.39997Z" fill="url(#paint14_linear)"/>
<path d="M31.8 15.6C31.5 15.6 31.3 15.6 31 15.7C30.9 15.7 30.9 15.7 30.8 15.7C30.5 15.7 30.3 15.7 30 15.7H29.9C29.6 15.7 29.4 15.7 29.1 15.7H29C28.7 15.7 28.4 15.7 28.2 15.7H28.1C27.5 15.7 27 15.6 26.4 15.6C25.8 15.5 25.3 15.4 24.7 15.3C24.6 14.5 24.6 13.8 24.7 13.1C27 13.6 29.4 13.7 31.8 13.5C36 13.1 39.6 11.3 40.3 9.40002C40 10.3 39.8 11.2 39.6 11.8C39 13.2 37.2 14.4 34.6 15.1C34.4 15.2 34.2 15.2 33.9 15.3C33.8 15.3 33.7 15.3 33.6 15.4C33.1 15.4 32.5 15.5 31.8 15.6Z" fill="#BCD3D0"/>
</g>
<defs>
<linearGradient id="paint0_linear" x1="27.588" y1="53.3983" x2="5.98178" y2="4.20253" gradientUnits="userSpaceOnUse">
<stop stop-color="#0C1725"/>
<stop offset="1" stop-color="#0C1725" stop-opacity="0"/>
</linearGradient>
<linearGradient id="paint1_linear" x1="48.7309" y1="38.9422" x2="2.24065" y2="38.9422" gradientUnits="userSpaceOnUse">
<stop offset="0.0225639" stop-color="#10D1FF"/>
<stop offset="1" stop-color="#064B5C"/>
</linearGradient>
<linearGradient id="paint2_linear" x1="32.0156" y1="22.8962" x2="18.956" y2="22.8962" gradientUnits="userSpaceOnUse">
<stop stop-color="white"/>
<stop offset="0.426" stop-color="#BCD3D0"/>
<stop offset="0.9954" stop-color="#A2B5B3"/>
</linearGradient>
<linearGradient id="paint3_linear" x1="37.1035" y1="16.5107" x2="17.8502" y2="16.5107" gradientUnits="userSpaceOnUse">
<stop offset="0.3485" stop-color="#DAEFEC"/>
<stop offset="1" stop-color="#B6C4C2"/>
</linearGradient>
<linearGradient id="paint4_linear" x1="26.4089" y1="50.0135" x2="16.2721" y2="50.0135" gradientUnits="userSpaceOnUse">
<stop stop-color="#DAEFEC"/>
<stop offset="1" stop-color="#838F8D"/>
</linearGradient>
<linearGradient id="paint5_linear" x1="26.4088" y1="50.1419" x2="16.7216" y2="50.1419" gradientUnits="userSpaceOnUse">
<stop stop-color="#BCD3D0"/>
<stop offset="1" stop-color="#546160"/>
</linearGradient>
<linearGradient id="paint6_linear" x1="25.0227" y1="49.8802" x2="16.7214" y2="49.8802" gradientUnits="userSpaceOnUse">
<stop stop-color="#929497" stop-opacity="0"/>
<stop offset="0.5145" stop-color="#FAFAFA"/>
<stop offset="0.9985" stop-color="#929497" stop-opacity="0"/>
</linearGradient>
<linearGradient id="paint7_linear" x1="9.39835" y1="52.1287" x2="9.39835" y2="48.7577" gradientUnits="userSpaceOnUse">
<stop stop-color="#838F8D"/>
<stop offset="1" stop-color="#DAEFEC"/>
</linearGradient>
<linearGradient id="paint8_linear" x1="9.55645" y1="47.2363" x2="3.67595" y2="47.2363" gradientUnits="userSpaceOnUse">
<stop stop-color="#DAEFEC"/>
<stop offset="1" stop-color="#838F8D"/>
</linearGradient>
<linearGradient id="paint9_linear" x1="9.24055" y1="48.9238" x2="3.67555" y2="48.9238" gradientUnits="userSpaceOnUse">
<stop stop-color="#BCD3D0"/>
<stop offset="1" stop-color="#546160"/>
</linearGradient>
<linearGradient id="paint10_linear" x1="36.1251" y1="21.4769" x2="20.0522" y2="21.4769" gradientUnits="userSpaceOnUse">
<stop stop-color="#C3DBD3"/>
<stop offset="1" stop-color="#919191"/>
</linearGradient>
<linearGradient id="paint11_linear" x1="44.2659" y1="13.8517" x2="18.6191" y2="13.8517" gradientUnits="userSpaceOnUse">
<stop offset="0.1501" stop-color="#0088A8"/>
<stop offset="0.272" stop-color="#0183A2"/>
<stop offset="0.4323" stop-color="#027592"/>
<stop offset="0.6139" stop-color="#055D76"/>
<stop offset="0.8098" stop-color="#083D51"/>
<stop offset="1" stop-color="#0C1725"/>
</linearGradient>
<linearGradient id="paint12_linear" x1="44.266" y1="13.6918" x2="20.1844" y2="13.6918" gradientUnits="userSpaceOnUse">
<stop stop-color="#16596B"/>
<stop offset="0.9948" stop-color="#071B21"/>
</linearGradient>
<linearGradient id="paint13_linear" x1="41.6708" y1="7.8493" x2="15.4305" y2="7.8493" gradientUnits="userSpaceOnUse">
<stop offset="0.0225639" stop-color="#10D1FF"/>
<stop offset="1" stop-color="#064B5C"/>
</linearGradient>
<linearGradient id="paint14_linear" x1="40.3889" y1="12.3762" x2="17.0621" y2="12.3762" gradientUnits="userSpaceOnUse">
<stop stop-color="white"/>
<stop offset="1" stop-color="#ADBFBD"/>
</linearGradient>
<clipPath id="clip0">
<rect width="48.7" height="56.6" fill="white"/>
</clipPath>
</defs>
</svg>
