<svg width="50" height="54" viewBox="0 0 50 54" fill="none" xmlns="http://www.w3.org/2000/svg">
<g clip-path="url(#clip0)">
<path opacity="0.64" d="M7.70001 26C9.00001 25.1 10.4 24.3 11.8 23.5L10.2 17.9C10.1 17.7 10 17.6 9.90001 17.4H9.80001C8.80001 16 7.50001 13.5 7.10001 11.9C5.00001 4.89995 6.00001 0.399954 13.5 -4.64665e-05C19 -0.200046 25.9 2.99995 24.7 7.99995C24.7 8.09995 24.8 8.19995 24.8 8.19995C25 8.49995 25.1 8.79995 25.3 8.99995C25.5 9.29995 25.6 9.59995 25.7 9.89995C25.7 9.89995 25.7 9.99995 25.8 9.99995C25.9 10.3 26 10.6 26.2 10.8C26.2 10.8 26.2 10.8 26.2 10.9C26.3 11.2 26.4 11.5 26.5 11.8C26.5 11.9 26.5 11.9 26.6 12C26.7 12.3 26.8 12.6 26.9 12.9C27.4 14.6 27.8 16.3 27.9 17.8C28 17.8 28.1 17.8 28.1 17.8C28.2 17.8 28.2 17.8 28.3 17.8C28.4 17.8 28.5 17.8 28.6 17.8H28.7C28.8 17.8 28.9 17.8 29 17.8H29.1C29.2 17.8 29.4 17.8 29.5 17.8H29.6C29.7 17.8 29.8 17.8 29.9 17.8H30C30.1 17.8 30.3 17.8 30.4 17.8C30.5 17.8 30.7 17.8 30.8 17.8H30.9C31 17.8 31.2 17.8 31.3 17.8C31.3 17.8 31.3 17.8 31.4 17.8C31.6 17.8 31.7 17.8 31.9 17.9C32 17.9 32.2 17.9 32.3 18C32.3 18 32.3 18 32.4 18C32.7 18.1 33 18.1 33.3 18.2C33.4 18.2 33.6 18.3 33.7 18.3C34 18.4 34.3 18.5 34.6 18.6C34.9 18.7 35.2 18.9 35.5 19C35.6 19.1 35.8 19.2 35.9 19.2C36.2 19.4 36.5 19.6 36.8 19.8C37.1 20 37.4 20.2 37.7 20.5C37.8 20.6 38 20.7 38.1 20.9C40.1 22.8 41.8 25.8 43.1 30.1C43.6 31.9 43.3 30.8 44.1 33.5C44.3 34.3 44.4 35.2 44.3 35.9C43.4 42.8 37.5 47.3 30.3 50C29.4 50.4 27.4 51 26.2 51.3C20.1 53.3 13 53.6 8.00001 52.6C6.80001 52.4 5.70001 51.8 4.70001 51.1C4.60001 51 4.40001 50.9 4.30001 50.8C4.30001 50.8 4.30001 50.8 4.20001 50.7C3.90001 50.4 3.60001 50.1 3.30001 49.8L3.20001 49.7C3.10001 49.6 3.00001 49.5 2.90001 49.3C2.90001 49.2 2.80001 49.2 2.80001 49.1C2.70001 49 2.60001 48.9 2.60001 48.8C2.60001 48.7 2.50001 48.7 2.50001 48.6C2.40001 48.5 2.40001 48.4 2.30001 48.3C2.30001 48.2 2.20001 48.2 2.20001 48.1C2.10001 48 2.10001 47.9 2.00001 47.7C2.00001 47.6 2.00001 47.6 1.90001 47.5C1.80001 47.3 1.80001 47.1 1.70001 47L0.500008 43C-1.49999 35.4 1.60001 30.2 7.70001 26Z" fill="url(#paint0_linear)"/>
<path d="M3.09998 43V47C3.09998 49.7 4.99998 52 7.59998 52.5C18.8 54.8 43.2 50.4 49.1 36.2C49.4 35.4 49.6 34.6 49.6 33.8C49.6 31 49.6 32.2 49.6 30.4C49.6 16 39.7 17.2 33.6 18.6C27.9 19.9 20.9 22.6 15 26C7.59998 30.2 3.09998 35.3 3.09998 43Z" fill="url(#paint1_linear)"/>
<path d="M26.6 51.6L27.8 34.1L26.9 33.1C26.9 33.1 27.5 30.5 28.2 30.2C28.9 29.9 29.7 31.8 29.7 31.8L28.8 33.7L31 50.3C30 50.7 28 51.3 26.6 51.6Z" fill="url(#paint2_linear)"/>
<path opacity="0.35" d="M3.79998 47.8999V43.8999C3.79998 36.2999 8.39998 31.0999 15.7 26.8999C21.5 23.4999 28.6 20.8999 34.3 19.4999C38.3 18.5999 43.9 17.7999 47.3 21.2999C44 16.7999 37.9 17.6999 33.6 18.6999C27.9 19.9999 20.9 22.6999 15 26.0999C7.59998 30.1999 3.09998 35.2999 3.09998 42.9999V46.9999C3.09998 48.5999 3.69998 49.9999 4.79998 50.9999C4.19998 50.0999 3.79998 48.9999 3.79998 47.8999Z" fill="url(#paint3_linear)"/>
<path d="M16.7 26.1999C17.1 31.5999 20.4 34.0999 26.4 34.0999L28.2999 30.1999L30 32.9999C34.1 31.2999 34.7 27.1999 34.9 19.2999C27.6 20.7999 22.4 23.2999 16.7 26.1999Z" fill="url(#paint4_linear)"/>
<g opacity="0.39">
<path opacity="0.39" d="M30 33.5L28.3 30.5L26.6 34.5C19.9 34.5 16.6 31.6 16.6 26.2C17 31.6 20.3 34.1 26.3 34.1L28.2 30.2L29.9 33C34 31.3 34.4 26.6 34.7 21.1C34.9 23.4 35.9 31 30 33.5Z" fill="url(#paint5_linear)"/>
</g>
<path opacity="0.15" d="M12.5 49.0999C12.5 42.7999 15.9 38.5999 21.4 35.0999C25.8 32.2999 31.1 30.0999 35.3 28.9999C39.9 27.7999 47.3 26.8999 47.3 38.6999C47.3 39.0999 47.3 39.2999 47.3 39.4999C40.4 49.4999 23.6 53.4999 12.5 53.0999C12.5 52.8999 12.5 52.6999 12.5 52.3999V49.0999Z" fill="#5DE8CE"/>
<path d="M27.3 30.2C22.4 31.7 19.8 29 19.8 25.4V14.7C19.8 11.1 22.7 8.19995 26.3 8.19995C29.9 8.19995 32.8 11.1 32.8 14.7V20.8C32.9 24.4 32.2 28.7 27.3 30.2Z" fill="url(#paint6_linear)"/>
<path d="M18.7 12.9999C18.7 5.99993 22.9999 0.299927 28.2999 0.299927C33.5999 0.299927 37.9 5.99993 37.9 12.9999C37.9 19.9999 36.0999 25.6999 30.7999 25.6999C25.4999 25.6999 18.7 19.9999 18.7 12.9999Z" fill="url(#paint7_linear)"/>
<path d="M36.2001 5.69995C37.1 7.59995 37.6 9.79995 37.6 12.2C37.6 19.2 35.8 24.9 30.5 24.9C26.7 24.9 22.1 22 19.8 17.7C21.9 22.3 26.8 25.6 30.8 25.6C36.1 25.6 37.9001 19.9 37.9001 12.9C37.9001 10.3 37.3001 7.79995 36.2001 5.69995Z" fill="white"/>
<path d="M28.2 -4.64665e-05C33.7 -0.200046 39.6999 2.99995 37.0999 7.99995C33.0999 11 27.5 9.79995 25.1 9.39995C23.3 9.09995 23.5 11.8 21.6 13.6C20.2 10.7 18.3 13.5 19.9 15.6C20.6999 16.6 19.9 17.5 19.4 17.5C18.8 16.1 18.2 13.6 18.2 12C18.3 4.89995 20.6 0.399954 28.2 -4.64665e-05Z" fill="url(#paint8_linear)"/>
<path opacity="0.2" d="M35 7.29991C34.3 7.49991 33.3 7.59991 32.4 7.59991C28.5 7.39991 28.5 1.59991 32.4 1.49991C34.1 1.39991 35.9 2.49991 36.6 4.69991C36.8 5.79991 36.2 6.99991 35 7.29991Z" fill="#E6E8E8"/>
</g>
<defs>
<linearGradient id="paint0_linear" x1="26.933" y1="48.8797" x2="10.1466" y2="7.66155" gradientUnits="userSpaceOnUse">
<stop stop-color="#0C1725"/>
<stop offset="1" stop-color="#0C1725" stop-opacity="0"/>
</linearGradient>
<linearGradient id="paint1_linear" x1="49.5692" y1="35.4466" x2="3.07888" y2="35.4466" gradientUnits="userSpaceOnUse">
<stop stop-color="#40FCFF"/>
<stop offset="0.3706" stop-color="#27D8DB"/>
<stop offset="0.7784" stop-color="#10B6BA"/>
<stop offset="1" stop-color="#07A9AD"/>
</linearGradient>
<linearGradient id="paint2_linear" x1="31.0995" y1="40.9002" x2="26.5737" y2="40.9002" gradientUnits="userSpaceOnUse">
<stop stop-color="#4AB5CF"/>
<stop offset="1" stop-color="#064B5C"/>
</linearGradient>
<linearGradient id="paint3_linear" x1="47.2104" y1="34.4182" x2="3.07888" y2="34.4182" gradientUnits="userSpaceOnUse">
<stop stop-color="#33B9B2"/>
<stop offset="1" stop-color="#27918C"/>
</linearGradient>
<linearGradient id="paint4_linear" x1="35.0065" y1="26.6745" x2="16.7307" y2="26.6745" gradientUnits="userSpaceOnUse">
<stop stop-color="#40FCFF"/>
<stop offset="0.3706" stop-color="#27D8DB"/>
<stop offset="0.7784" stop-color="#10B6BA"/>
<stop offset="1" stop-color="#07A9AD"/>
</linearGradient>
<linearGradient id="paint5_linear" x1="34.9938" y1="27.7526" x2="16.7307" y2="27.7526" gradientUnits="userSpaceOnUse">
<stop stop-color="#08B8BD"/>
<stop offset="0.1488" stop-color="#07ABB0"/>
<stop offset="0.4239" stop-color="#05898F"/>
<stop offset="0.792" stop-color="#025259"/>
<stop offset="1" stop-color="#003038"/>
</linearGradient>
<linearGradient id="paint6_linear" x1="32.8539" y1="19.4006" x2="19.7942" y2="19.4006" gradientUnits="userSpaceOnUse">
<stop stop-color="white"/>
<stop offset="0.426" stop-color="#BCD3D0"/>
<stop offset="0.9954" stop-color="#A2B5B3"/>
</linearGradient>
<linearGradient id="paint7_linear" x1="37.9418" y1="13.0151" x2="18.6885" y2="13.0151" gradientUnits="userSpaceOnUse">
<stop offset="0.3485" stop-color="#DAEFEC"/>
<stop offset="1" stop-color="#B6C4C2"/>
</linearGradient>
<linearGradient id="paint8_linear" x1="37.7796" y1="8.70165" x2="18.3213" y2="8.70165" gradientUnits="userSpaceOnUse">
<stop stop-color="#C3DBD3"/>
<stop offset="1" stop-color="#919191"/>
</linearGradient>
<clipPath id="clip0">
<rect width="49.6" height="53.2" fill="white"/>
</clipPath>
</defs>
</svg>
