<svg width="56" height="63" viewBox="0 0 56 63" fill="none" xmlns="http://www.w3.org/2000/svg">
<g clip-path="url(#clip0)">
<path opacity="0.64" d="M8.6 33.8999C9.6 33.1999 10.8 32.4999 11.9 31.7999V31.6999C11.8 31.1999 11.2 30.8999 10.7 31.0999C10.3 31.2999 10 31.6999 9.6 31.9999C9 32.4999 8 32.4999 7.1 32.1999C6.2 31.8999 5.4 31.2999 4.6 30.6999C5.4 30.7999 6.3 30.8999 6.8 30.3999C7.4 29.8999 7.4 28.7999 7 27.8999C6.7 26.9999 6 26.2999 5.3 25.5999C4.6 24.8999 3.9 24.1999 3.5 23.3999C3.1 22.4999 2.9 21.4999 3.2 20.6999C3.4 20.1999 3.7 19.6999 3.6 19.0999C3.5 18.3999 3 17.8999 2.6 17.2999C-2.8 11.4999 1.6 8.59994 5.4 10.0999C5.9 10.2999 6.3 10.4999 6.7 10.5999C10.3 5.89994 19.3 7.39993 23.6 12.3999C24.1 12.9999 24.4 13.3999 23.4 13.1999C23.5 13.2999 23.5 13.2999 23.5 13.3999C25.5 14.2999 26.2 16.4999 26.9 18.7999C26.9 18.7999 26.9 18.7999 26.9 18.8999C26.9 18.9999 26.9 18.9999 27 19.0999C27.1 19.1999 27.1 19.3999 27.2 19.4999C27.2 19.5999 27.3 19.5999 27.3 19.6999C27.4 19.7999 27.4 19.9999 27.5 20.0999C27.5 20.1999 27.5 20.1999 27.6 20.2999C27.7 20.4999 27.7 20.6999 27.8 20.7999L30.2 24.3999C29.2 23.6999 28.6 22.7999 28.1 21.6999C28.5 23.0999 28.8 24.4999 29 25.6999C29.1 25.6999 29.2 25.6999 29.2 25.6999H29.3C29.4 25.6999 29.5 25.6999 29.6 25.6999H29.7C29.8 25.6999 29.9 25.6999 30 25.6999H30.1C30.2 25.6999 30.4 25.6999 30.5 25.6999H30.6C30.7 25.6999 30.8 25.6999 31 25.6999H31.1C31.2 25.6999 31.4 25.6999 31.5 25.6999C31.6 25.6999 31.8 25.6999 31.9 25.6999H32C32.1 25.6999 32.3 25.6999 32.4 25.6999C32.4 25.6999 32.4 25.6999 32.5 25.6999C32.7 25.6999 32.8 25.6999 33 25.7999C33.1 25.7999 33.3 25.7999 33.4 25.8999C33.4 25.8999 33.4 25.8999 33.5 25.8999C33.8 25.9999 34.1 25.9999 34.4 26.0999C34.5 26.0999 34.7 26.1999 34.8 26.1999C35.1 26.2999 35.4 26.3999 35.7 26.4999C36 26.5999 36.3 26.7999 36.6 26.8999C36.7 26.9999 36.9 27.0999 37 27.0999C37.3 27.2999 37.6 27.4999 37.9 27.6999C38.2 27.8999 38.5 28.0999 38.8 28.3999C38.9 28.4999 39.1 28.5999 39.2 28.7999C41.2 30.6999 43.1 33.6999 44.5 38.0999C45.1 39.8999 44.8 38.7999 45.6 41.5999C45.9 42.3999 46 43.2999 45.9 44.0999C45.6 50.9999 35.2 62.3999 12.1 59.3999C10.3 59.1999 8.7 58.0999 7.4 56.6999C7.3 56.5999 7.3 56.4999 7.2 56.4999C7.1 56.3999 7.1 56.3999 7 56.2999C7 56.0999 6.9 55.9999 6.9 55.8999C6.8 55.6999 6.7 55.5999 6.6 55.3999C6.6 55.2999 6.5 55.2999 6.5 55.1999V55.0999C6.5 54.9999 6.4 54.9999 6.4 54.8999V54.7999C6.4 54.6999 6.3 54.6999 6.3 54.5999V54.4999C6.3 54.3999 6.2 54.3999 6.2 54.2999V54.1999C6.2 54.0999 6.1 53.9999 6.1 53.8999L4.8 49.7999C2.2 42.1999 2.5 38.1999 8.6 33.8999Z" fill="url(#paint0_linear)"/>
<path d="M33.1 7.19995C33.6 4.69995 28.3 3.69995 25.7 5.79995C22.9 7.99995 23.8 8.19995 20.5 6.69995C17.2 5.19995 11.8 7.99995 15.4 13.9C15.7 14.4 16 15 15.9 15.7C15.8 16.3 15.3 16.8 15 17.3C14.5 18.1 14.3 19.2 14.5 20C14.7 20.8 15.1 21.5 15.6 22.2C16.1 22.9 16.5 23.6 16.6 24.5C16.7 25.4 16.4 26.4 15.6 27C14.9 27.5 14 27.4 13.3 27.2999C13.9 27.9 14.5 28.5 15.3 28.7999C16.1 29.0999 17.1 29.1 17.9 28.6C18.3 28.3 18.7 27.9 19.2 27.7C19.7 27.5 20.3 27.7999 20.2 28.2999C20.1 28.6999 19.6 29 19.4 29.2999C19 29.9 19.5 30.5999 20.1 30.7999C20.7 31 21.3 31 21.8 31.4C22.3 31.7999 22.4 32.5999 22.7 33.0999C23.4 34.0999 25.1 34.1 26.1 33C26.5 32.6 26.9 31.9 27.4 31.9C27.9 31.9 28.1 32.5999 28.3 33.0999C28.6 33.7999 29.4001 34.4 30.2001 34.2999C32.4001 34 36.7 32.3 35.8 28.6C34.9 24.9 38.8 24.7 38.1 20.1C37.4 15.5 31.3 16.3 33.1 7.19995Z" fill="url(#paint1_linear)"/>
<path d="M6.90002 49.6V53.7C6.90002 56.4 8.80002 58.7 11.5 59.3C22.8 61.6 42.1 59.6 48 45.3C48.3 44.5 48.5 43.7 48.5 42.8C48.5 40 48.5 40.9 48.5 39.1C48.5 33.5 43.2 24.5 34.9 26.4C29.2 27.7 24.8 29 18.9 32.4C11.5 36.7 6.90002 41.9 6.90002 49.6Z" fill="url(#paint2_linear)"/>
<path opacity="0.35" d="M7.7 54.5V50.4C7.7 42.7 12.3 37.5 19.7 33.2C25.6 29.8 30 28.5 35.7 27.2C39.7 26.3 42.5 27.8 46 31.3C43.2 27.2 39.3 25.4 35 26.3C29.3 27.6 24.9 28.9 19 32.3C11.6 36.6 7 41.8 7 49.5V53.6C7 55.2 7.6 56.6 8.7 57.7C8 56.8 7.7 55.7 7.7 54.5Z" fill="url(#paint3_linear)"/>
<path opacity="0.15" d="M13.7 57.2C13.7 50.9 17.1 46.6 22.7 43.1C27.1 40.3 32.4 38.1 36.7 37C41.3 35.8 48.7999 34.8 48.7999 46.8C48.7999 47.2 48.7999 47.4 48.7999 47.6C41.6999 57.5 26.4 61.5 13.7 59.7C13.7 59.5 13.7 59.3 13.7 59V57.2Z" fill="#5DE8CE"/>
<path d="M21.4 28.2L34.8 26.1C34.8 26.1 35.6 34.5 31.4 38.7C27.3 36.7 24.8 34.3 21.4 28.2Z" fill="#175E66"/>
<path d="M32 44.0999L30.3 38.2C30.3 38.2 24.3 34.0999 22.9 33.0999V22.3C22.9 18.7 25.4 15.7 28.4 15.7C31.4 15.7 33.9 18.7 33.9 22.3L35.2 28.4C35.2 33.3 32.4 38.2999 32.4 38.2999L32 44.0999Z" fill="url(#paint4_linear)"/>
<path d="M32.2 37.7C32.2 37.7 31.9 39.1 31.9 42.2C31.9 44.7 32.1 46.7 32.1 46.7L33.1 46.5999C33.1 46.5999 32.9 44.9 32.9 42.4C33 40.1 33.3 37.7999 33.3 37.7999L32.2 37.7Z" fill="#175E66"/>
<path d="M32.2 37.7L35.2999 40.5C37.0999 37.2 38.3 32.3 38 27.8C37.1 26.6 36.2 25.7 35.2 25.1C35.1 28.4 34.3 34.1 32.2 37.7Z" fill="#33B9B2"/>
<path d="M21.8 18.1C21.8 10.7 25.9 4.69995 31 4.69995C36.1 4.69995 40.2001 10.7 40.2001 18.1C40.2001 25.5 38.5001 31.5 33.4001 31.5C28.3001 31.5 21.8 25.5 21.8 18.1Z" fill="url(#paint5_linear)"/>
<path d="M38.5 10.5C39.3 12.5 39.8 14.9 39.8 17.4C39.8 24.8 38.1 30.8 33 30.8C29.4 30.8 25 27.7 22.8 23.2C24.8 28.1 29.5 31.5 33.3 31.5C38.4 31.5 40.1 25.5 40.1 18.1C40.1 15.3 39.5 12.6 38.5 10.5Z" fill="white"/>
<path d="M23 20.7C23 20.7 25.1 20.2 25.8 17.2C26.5 14.2 26.8 13 27.9 11.6C29.5 9.59998 32.6 8.39998 36.4 9.59998C38.5 10.3 38.3 9.79998 37.8 8.99998C34.3 2.59998 21.5 1.99998 18.3 12.6C16.4 19 22.4 24 22.4 24L23 20.7Z" fill="url(#paint6_linear)"/>
<path d="M37.2 10.9C36.4 10.5 35.7 10.5 35 10.5C34.3 10.5 33.7 10.7 33.1 10.9C32.6 11.1 32.1 11.3 31.6 11.5C31.1 11.7 30.6 12.3 30.2 12.9C29.4 14.1 29 15.5 28.6 17.2C28.4 18 28.2 19 27.6 19.8C27.1 20.6 26.4 21.1 25.7 21.6C25.6 21.7 25.5 21.6 25.5 21.6C25.5 21.5 25.5 21.4 25.5 21.4C26.1 20.8 26.6 20.1 26.9 19.4C27.1 19.1 27.1 18.7 27.1 18.3C27.1 17.9 27.1 17.5 27.1 17.1C27 15.5 27 13.5 27.8 11.7C28 11.3 28.2 10.8 28.5 10.4C28.7 9.99999 29.1 9.5 29.4 9.1C30.2 8.3 31.3 7.69999 32.4 7.59999C33.5 7.49999 34.6 7.7 35.5 8.3C36 8.6 36.4 8.9 36.7 9.3C37 9.7 37.3 10.2 37.3 10.8C37.3 10.9 37.2 11 37.1 11C37.3 10.9 37.3 10.9 37.2 10.9Z" fill="#A2B0AE"/>
<path d="M37.9 10.2C38.2 10.1 38.5 10.1 38.8 10.1C39.1 10.1 39.4 10.2 39.8 10.4C40.4 10.7 40.9 11.3 41.2 11.9C41.8 13.1 41.8 14.3 41.9 15.4C41.9 16.5 41.8 17.5 41.7 18.5C41.6 19.5 41.5 20.4 42 21.5C41.7 21.4 41.4 21.3 41.2 21.1C41 20.9 40.7 20.7 40.5 20.4C40.3 20.1 40.1 19.9 40 19.6C39.9 19.3 39.8 19 39.7 18.7C39.4 17.5 39.3 16.4 39.3 15.3C39.3 14.2 39.4 13.3 39.3 12.4C39.3 12 39.2 11.6 39 11.2C38.9 11 38.7 10.8 38.6 10.6C38.4 10.6 38.2 10.5 37.9 10.2Z" fill="url(#paint7_linear)"/>
<path d="M23.6 20.0999C22.7 19.3999 21.2 19.2999 20.6 20.6999C19.8 22.5999 21.4 24.3999 22.9 24.1999C24.3 23.9999 24.8 20.9999 23.6 20.0999Z" fill="#BECECB"/>
<path d="M22.6 23.7999C22.8761 23.7999 23.1 23.5761 23.1 23.2999C23.1 23.0238 22.8761 22.7999 22.6 22.7999C22.3238 22.7999 22.1 23.0238 22.1 23.2999C22.1 23.5761 22.3238 23.7999 22.6 23.7999Z" fill="white"/>
<path d="M29.2 37.7999C30.5 40.8999 31.4999 43.8999 32.0999 46.8999L33.0999 46.6999C32.3999 43.3999 31.4999 40.4999 30.2999 37.8999L29.2 37.7999Z" fill="#2AA09D"/>
<path d="M30.3 37.8L28.8 41.7C26 39.2 22.2 35.4 19.9 31.7L21.4 28.1C23 31.1 26.8 35.5 30.3 37.8Z" fill="#33B9B2"/>
<g opacity="0.35">
<path opacity="0.35" d="M32.7 49.7C32.7 49.4 32.9 49.1 33.2 49.1C33.5 49.1 33.7 49.2 33.7 49.5C33.7 49.8 33.5 50.1 33.2 50.1C32.9 50.1 32.7 50 32.7 49.7Z" fill="url(#paint8_linear)"/>
</g>
<g opacity="0.35">
<path opacity="0.35" d="M32.8999 49.5999C32.8999 49.3999 32.9999 49.3 33.1999 49.2C33.3999 49.2 33.4999 49.3 33.4999 49.4C33.4999 49.6 33.3999 49.6999 33.1999 49.7999C32.9999 49.8999 32.8999 49.7999 32.8999 49.5999Z" fill="url(#paint9_linear)"/>
</g>
<g opacity="0.35">
<path opacity="0.35" d="M33.3 52.6C33.3 52.3 33.5 52 33.8 52C34.1 51.9 34.3 52.1 34.3 52.4C34.3 52.7 34 52.9 33.8 53C33.5 53.1 33.3 52.9 33.3 52.6Z" fill="url(#paint10_linear)"/>
</g>
<g opacity="0.35">
<path opacity="0.35" d="M33.4 52.5999C33.4 52.3999 33.5 52.3 33.7 52.2C33.9 52.2 34 52.3 34 52.4C34 52.5 33.9 52.6999 33.7 52.7999C33.6 52.7999 33.4 52.6999 33.4 52.5999Z" fill="url(#paint11_linear)"/>
</g>
<path d="M38.9 9.29997C41.1 10.4 43.4 11.9 43.9 12.5C44.9 13.6 45.2 14.8 44.1 16C42.3 18 38.8 20.2 35.7 20.7C32.1 21.3 29.2 20.2 27.2 19.2C24.8 17.9 19.8 14.3 19 13.5C18.1 12.7 19 12.1 25.6 9.79997C33.3 7.19997 35.5 7.59997 38.9 9.29997Z" fill="url(#paint12_linear)"/>
<path d="M38.9 9.3C41.1 10.4 43.4 11.9 43.9 12.5C44.9 13.6 45.2 14.2 44.1 15.4C42.3 17.4 38.8 19.6 35.7 20.1C32.1 20.7 29.2 19.6 27.2 18.6C24.8 17.3 21.4 14.9 20.6 14.1C19.7 13.3 20.6 12.7 27.2 10.4C34.9 7.8 35.5 7.6 38.9 9.3Z" fill="#33B9B2"/>
<path d="M39.7 12.8C37 17 24.3 19.6 18 12.4C18 -4.40005 39.7 -4.00004 39.7 12.8Z" fill="url(#paint13_linear)"/>
<path opacity="0.2" d="M35.8 11.3999C33.8 12.1999 30.6 12.6999 27.3 11.6999C24.3 10.8999 22.9 7.39992 24.5 4.79992C27.8 -0.600079 36.4 0.599922 37.7 8.09992C37.9 9.49992 37.1 10.8999 35.8 11.3999Z" fill="#5DE8CE"/>
<path d="M55 35.2999L50.6 56.9999C50.5 57.4999 50.1 57.8999 49.7 58.0999L36.7 62.4999C35.7 62.7999 33.9 62.3999 34.3 60.5999L38.2 40.2999C38.4 39.2999 39 38.3999 40 38.0999L53.6 33.5999C54.3 33.3999 55.3 34.0999 55 35.2999Z" fill="url(#paint14_linear)"/>
<path d="M55 35.4999L50.6 56.9999C50.5 57.4999 50.1 57.8999 49.7 58.0999L36.8 62.3999C35.8 62.6999 34.8 61.7999 35 60.7999L39 40.7999C39.2 39.7999 39.9 38.9999 40.9 38.6999L53.7 34.3999C54.4 34.0999 55.2 34.7999 55 35.4999Z" fill="#7EF2BB"/>
<path d="M55 35.4999L50.6 56.9999C50.5 57.4999 50.1 57.8999 49.7 58.0999L36.8 62.3999C35.8 62.6999 34.8 61.7999 35 60.7999L39 40.7999C39.2 39.7999 39.9 38.9999 40.9 38.6999L53.7 34.3999C54.4 34.0999 55.2 34.7999 55 35.4999Z" fill="url(#paint15_linear)"/>
<path d="M35.3 61.1L39.4 41C39.6 40 40.3 39.2 41.3 38.9L54.1 34.6C54.4 34.5 54.6 34.5 54.8 34.6C54.5 34.3 54.1 34.1 53.7 34.3L40.9 38.6C39.9 38.9 39.2 39.7 39 40.7L34.9 60.8C34.8 61.5 35.1 62.1 35.6 62.3C35.4 62.1 35.2 61.6 35.3 61.1Z" fill="url(#paint16_linear)"/>
</g>
<defs>
<linearGradient id="paint0_linear" x1="30.7197" y1="58.9905" x2="25.6205" y2="6.49416" gradientUnits="userSpaceOnUse">
<stop stop-color="#0C1725"/>
<stop offset="1" stop-color="#0C1725" stop-opacity="0"/>
</linearGradient>
<linearGradient id="paint1_linear" x1="39.6858" y1="19.3629" x2="14.7361" y2="19.957" gradientUnits="userSpaceOnUse">
<stop stop-color="#C3DBD3"/>
<stop offset="1" stop-color="#919191"/>
</linearGradient>
<linearGradient id="paint2_linear" x1="48.5522" y1="43.1139" x2="6.94492" y2="43.1139" gradientUnits="userSpaceOnUse">
<stop stop-color="#40FCFF"/>
<stop offset="0.3706" stop-color="#27D8DB"/>
<stop offset="0.7784" stop-color="#10B6BA"/>
<stop offset="1" stop-color="#07A9AD"/>
</linearGradient>
<linearGradient id="paint3_linear" x1="45.9399" y1="41.9609" x2="6.9449" y2="41.9609" gradientUnits="userSpaceOnUse">
<stop stop-color="#33B9B2"/>
<stop offset="1" stop-color="#27918C"/>
</linearGradient>
<linearGradient id="paint4_linear" x1="38.4899" y1="37.0693" x2="18.1903" y2="17.2771" gradientUnits="userSpaceOnUse">
<stop stop-color="white"/>
<stop offset="0.426" stop-color="#BCD3D0"/>
</linearGradient>
<linearGradient id="paint5_linear" x1="40.1358" y1="18.1416" x2="21.7871" y2="18.1416" gradientUnits="userSpaceOnUse">
<stop offset="0.3485" stop-color="#DAEFEC"/>
<stop offset="1" stop-color="#B6C4C2"/>
</linearGradient>
<linearGradient id="paint6_linear" x1="38.1411" y1="14.1859" x2="17.9349" y2="14.1859" gradientUnits="userSpaceOnUse">
<stop stop-color="#C3DBD3"/>
<stop offset="1" stop-color="#919191"/>
</linearGradient>
<linearGradient id="paint7_linear" x1="43.3039" y1="15.8413" x2="36.6268" y2="15.8413" gradientUnits="userSpaceOnUse">
<stop stop-color="#C3DBD3"/>
<stop offset="1" stop-color="#919191"/>
</linearGradient>
<linearGradient id="paint8_linear" x1="33.6953" y1="49.5782" x2="32.6877" y2="49.5782" gradientUnits="userSpaceOnUse">
<stop stop-color="#33B9B2"/>
<stop offset="1" stop-color="#27918C"/>
</linearGradient>
<linearGradient id="paint9_linear" x1="33.5008" y1="49.5782" x2="32.8821" y2="49.5782" gradientUnits="userSpaceOnUse">
<stop stop-color="#33B9B2"/>
<stop offset="1" stop-color="#27918C"/>
</linearGradient>
<linearGradient id="paint10_linear" x1="34.2578" y1="52.5029" x2="33.2502" y2="52.5029" gradientUnits="userSpaceOnUse">
<stop stop-color="#33B9B2"/>
<stop offset="1" stop-color="#27918C"/>
</linearGradient>
<linearGradient id="paint11_linear" x1="34.0633" y1="52.5029" x2="33.4447" y2="52.5029" gradientUnits="userSpaceOnUse">
<stop stop-color="#33B9B2"/>
<stop offset="1" stop-color="#27918C"/>
</linearGradient>
<linearGradient id="paint12_linear" x1="18.8384" y1="14.4437" x2="44.8358" y2="14.4437" gradientUnits="userSpaceOnUse">
<stop offset="0.0240785" stop-color="#00B3BF"/>
<stop offset="1" stop-color="#68E0C9"/>
</linearGradient>
<linearGradient id="paint13_linear" x1="17.9601" y1="8.45915" x2="39.6912" y2="8.45915" gradientUnits="userSpaceOnUse">
<stop offset="0.0240785" stop-color="#00B3BF"/>
<stop offset="1" stop-color="#68E0C9"/>
</linearGradient>
<linearGradient id="paint14_linear" x1="34.1599" y1="48.0858" x2="55.0779" y2="48.0858" gradientUnits="userSpaceOnUse">
<stop stop-color="#2ED4A7"/>
<stop offset="0.3064" stop-color="#278C89"/>
<stop offset="1" stop-color="#2ED4A7"/>
</linearGradient>
<linearGradient id="paint15_linear" x1="34.879" y1="48.4208" x2="55.0202" y2="48.4208" gradientUnits="userSpaceOnUse">
<stop stop-color="#5CEAB0"/>
<stop offset="1" stop-color="#34B59D"/>
</linearGradient>
<linearGradient id="paint16_linear" x1="31.2951" y1="48.3456" x2="51.202" y2="48.3456" gradientUnits="userSpaceOnUse">
<stop stop-color="#57FFB6" stop-opacity="0"/>
<stop offset="0.5145" stop-color="#FAFAFA"/>
<stop offset="1" stop-color="#57FFB6" stop-opacity="0"/>
</linearGradient>
<clipPath id="clip0">
<rect width="55.1" height="62.6" fill="white"/>
</clipPath>
</defs>
</svg>
