<svg width="52" height="61" viewBox="0 0 52 61" fill="none" xmlns="http://www.w3.org/2000/svg">
<g clip-path="url(#clip0)">
<path opacity="0.64" d="M46.3 37.7999C45.3 33.5 43.7 30.4999 41.8 28.5999C41.7 28.4999 41.6 28.3999 41.6 28.3999C41.5 28.2999 41.5 28.2999 41.4 28.1999C41.3 28.0999 41.2 28.0999 41.2 27.9999C41.1 27.8999 41.1 27.8999 41 27.7999C40.9 27.6999 40.8 27.6999 40.8 27.5999C40.7 27.4999 40.7 27.4999 40.6 27.3999C40.5 27.2999 40.4 27.2999 40.3 27.1999C40.2 27.0999 40.2 27.0999 40.1 27.0999C40 26.9999 39.9 26.9999 39.8 26.8999C39.7 26.8999 39.7 26.7999 39.6 26.7999C39.4 26.6999 39.3 26.5999 39.1 26.4999C39 26.4999 38.9 26.3999 38.9 26.3999C38.8 26.3999 38.7 26.2999 38.6 26.2999C38.5 26.2999 38.4 26.1999 38.4 26.1999C38.3 26.1999 38.2 26.0999 38.1 26.0999C38 25.9999 37.9 25.9999 37.9 25.9999C37.8 25.9999 37.7 25.8999 37.6 25.8999C37.5 25.8999 37.4 25.7999 37.4 25.7999C37.3 25.7999 37.2 25.6999 37.1 25.6999C37 25.6999 36.9 25.6999 36.8 25.5999C36.7 25.5999 36.6 25.5999 36.5 25.4999C36.4 25.4999 36.3 25.4999 36.2 25.3999C36.1 25.3999 36 25.3999 36 25.3999C35.8 25.3999 35.7 25.2999 35.5 25.2999C35.4 25.2999 35.4 25.2999 35.3 25.2999C35.2 25.2999 35.1 25.2999 35 25.2999C34.9 25.2999 34.9 25.2999 34.8 25.2999C34.7 25.2999 34.6 25.2999 34.5 25.2999C34.4 25.2999 34.4 25.2999 34.3 25.2999C34.2 25.2999 34.1 25.2999 34 25.2999C33.9 25.2999 33.9 25.2999 33.8 25.2999C33.7 25.2999 33.6 25.2999 33.5 25.2999C33.4 25.2999 33.4 25.2999 33.3 25.2999C33.2 25.2999 33 25.2999 32.9 25.2999H32.8C32.6 25.2999 32.5 25.2999 32.3 25.2999C32.1 25.2999 32 25.2999 31.8 25.2999H31.7H31.6C31.6 24.8999 31.5 24.5999 31.5 24.1999C31.5 23.9999 31.5 23.7999 31.4 23.5999C31.4 23.1999 31.3 22.8999 31.2 22.4999C35.7 21.1999 39.1 18.9999 40.2 16.2999C40.7 15.1999 40.7 14.0999 40.3 12.9999C39.8 9.29995 34.8 5.99995 27.5 4.59995C21.6 -1.70005 11.2 -1.40005 8.70002 5.49995C4.50002 6.79995 1.40002 8.89995 0.400018 11.3999C-0.0999816 12.4999 -0.0999816 13.5999 0.300018 14.6999C0.800018 18.2999 5.50002 21.4999 12.5 22.9999C12.8 23.5999 13.2 24.1999 13.5 24.6999C13.6 24.7999 13.7 24.9999 13.8 25.0999L15.1 30.6999C13.6 31.4999 12.2 32.2999 10.9 33.2C8.60002 34.7 6.80002 36.2999 5.40002 38.0999C5.40002 38.0999 5.40002 38.2 5.30002 38.2C5.00002 38.6 4.70002 39 4.40002 39.5C4.30002 39.7 4.20002 39.8999 4.10002 40.0999C4.10002 40.0999 4.10002 40.2 4.00002 40.2C3.80002 40.6 3.60002 41.0999 3.40002 41.5999V41.7C3.30002 41.9 3.30002 42.0999 3.20002 42.2999V42.4C3.10002 42.9 2.90002 43.3999 2.80002 43.7999C2.80002 43.8999 2.80002 43.9 2.80002 44C2.80002 44.2 2.70002 44.3999 2.70002 44.5999V44.7C2.70002 45 2.70002 45.2 2.60002 45.5V45.5999C2.60002 45.7999 2.60002 46 2.60002 46.2999C2.60002 46.3999 2.60002 46.4 2.60002 46.5C2.60002 46.7 2.60002 47 2.60002 47.2V47.2999C2.60002 47.5999 2.60002 47.7999 2.70002 48.0999C2.70002 48.1999 2.70002 48.2 2.70002 48.2999C2.70002 48.5 2.80002 48.7 2.80002 49C2.80002 49.0999 2.80002 49.2 2.80002 49.2C2.90002 49.5 2.90002 49.7999 3.00002 50.0999L3.90002 54.0999C3.90002 54.2999 4.00002 54.5 4.10002 54.5999C4.10002 54.6999 4.10002 54.7 4.20002 54.7999C4.20002 54.8999 4.30002 55 4.30002 55.2C4.30002 55.2999 4.40002 55.3 4.40002 55.4C4.50002 55.5 4.50002 55.6 4.60002 55.7C4.60002 55.7999 4.70002 55.8 4.70002 55.9C4.80002 56 4.80002 56.1 4.90002 56.2C4.90002 56.2999 5.00002 56.3 5.00002 56.4C4.90002 56.8 5.00002 56.9 5.10002 57C5.10002 57 5.10002 57.0999 5.20002 57.0999C5.40002 57.3999 5.70002 57.7 6.00002 58C6.00002 58 6.00002 58 6.10002 58.0999C6.20002 58.1999 6.40002 58.3 6.50002 58.4C7.40002 59.1 8.50002 59.7 9.70002 59.9C11.2 60.2 12.9 60.4 14.8 60.4H14.9C15.2 60.4 15.5 60.4 15.8 60.4C15.9 60.4 16 60.4 16.1 60.4C16.4 60.4 16.7 60.4 16.9 60.4C17.3 60.4 17.7 60.4 18 60.4C18.1 60.4 18.2 60.4 18.3 60.4C18.6 60.4 18.9 60.3999 19.3 60.2999H19.4C19.5 60.2999 19.6 60.2999 19.7 60.2999C30.2 59.5999 42.4 55.3999 46.3 46.7999C46.7 45.7999 47.1 44.6999 47.3 43.5999C47.4 42.7999 47.4 42 47.2 41.2C46.6 38.5 46.8 39.5999 46.3 37.7999Z" fill="url(#paint0_linear)"/>
<path d="M10.6 37.7C12.5 41.3 16.5 49.6 19 60.4C15.3 60.6 12 60.5 9.30005 59.9C6.70005 59.4 4.80005 57.1 4.80005 54.4V50.4C4.80005 45.1 6.90005 41.1 10.6 37.7Z" fill="url(#paint1_linear)"/>
<path d="M51.2001 37.7999C51.2001 39.5999 51.3001 38.4999 51.2001 41.1999C51.2001 41.9999 51.0001 42.8999 50.7001 43.5999C49.9001 45.3999 48.9001 47.0999 47.6001 48.5999C45.0001 37.0999 40.7001 28.4999 38.9001 25.2999C44.7001 24.5999 51.2001 26.0999 51.2001 37.7999Z" fill="url(#paint2_linear)"/>
<path d="M17.5999 51.4C15.2999 44.5 12.7999 39.4 11.3999 37C12.8999 35.7 14.6999 34.5 16.5999 33.4C22.3999 30 29.4999 27.4 35.1999 26C35.9999 25.8 36.8999 25.6 37.7999 25.5C39.0999 27.8 42.0999 33.6 44.5999 41.6L17.5999 51.4Z" fill="url(#paint3_linear)"/>
<path d="M11.4 36.9C12.7 39.4 15.3 44.5 17.6 51.2999L44.7 41.5C42.2 33.5 39.2 27.6999 37.9 25.4C38.3 25.3 38.7 25.3 39 25.2C40.8 28.4 45.1 37.1 47.7 48.5C47.4 48.7999 47.1 49.1 46.8 49.4C40.4 56 29.4 59.2999 20 60.0999C19.6 60.0999 19.3 60.2 18.9 60.2C16.5 49.4 12.5 41.1 10.5 37.5C10.8 37.4 11.1 37.2 11.4 36.9Z" fill="url(#paint4_linear)"/>
<path opacity="0.15" d="M14.2 56.4999C14.2 50.1999 17.6 45.9999 23.1 42.4999C27.5 39.6999 32.7999 37.5 37 36.4C41.6 35.2 49 34.2999 49 46.0999C49 46.4999 49 46.7 49 46.9C42.1 56.9 25.3 60.8999 14.2 60.4999C14.2 60.2999 14.2 60.0999 14.2 59.7999V56.4999Z" fill="#5DE8CE"/>
<path opacity="0.35" d="M5.50005 55.2V51.2C5.50005 43.6 10.1 38.4 17.4 34.2C23.2 30.8 30.3 28.2 36 26.8C40 25.9 45.6 25.1 49 28.6C45.7001 24.1 39.6 25 35.3 26C29.6 27.3 22.6 30 16.7 33.4C9.40005 37.6 4.80005 42.8 4.80005 50.4V54.4C4.80005 56 5.40005 57.4 6.50005 58.4C5.80005 57.5 5.50005 56.4 5.50005 55.2Z" fill="#33B9B2"/>
<path d="M29 37.5C24.1 39 21.5 36.3 21.5 32.7V22.1C21.5 18.5 24.4 15.6 28 15.6C31.6 15.6 34.5 18.5 34.5 22.1V28.2C34.5 31.8 33.9 36 29 37.5Z" fill="url(#paint5_linear)"/>
<path d="M20.3999 20.3C20.3999 13.3 24.6999 7.59998 29.9999 7.59998C35.2999 7.59998 39.5999 13.3 39.5999 20.3C39.5999 27.3 37.7999 33 32.4999 33C27.1999 33 20.3999 27.4 20.3999 20.3Z" fill="url(#paint6_linear)"/>
<path d="M29.8999 7.39998C35.3999 7.19998 41.3999 10.4 38.7999 15.4C34.7999 18.4 29.1999 17.2 26.7999 16.8C24.9999 16.5 25.1999 19.2 23.2999 21C21.8999 18.1 19.9999 20.9 21.5999 23C22.3999 24 21.6999 24.9 21.1999 24.9C20.5999 23.5 19.8999 21 19.8999 19.4C19.9999 12.3 22.2999 7.69998 29.8999 7.39998Z" fill="#AABAB7"/>
<path d="M37.9 13.1C38.8 15 39.3 17.2 39.3 19.6C39.3 26.6 37.5 32.3 32.2 32.3C28.4 32.3 23.8 29.4 21.5 25.1C23.6 29.7 28.5 33 32.5 33C37.8 33 39.6 27.3 39.6 20.3C39.6 17.6 39 15.1 37.9 13.1Z" fill="white"/>
<path d="M38.5 27.8C38.6 27.4 38.2 26.9 37.7 27.4C36.4 28.9 34.9 29.1 34.9 28.3C34.9 29.1 33.8999 29.8 32.0999 29.7C31.2999 29.6 30.8 30.4 31.1 31C29.8 30.3 30.1 28.9 30.8 28.4C31.6 27.8 32.0999 27.9 32.5999 27C33.0999 26 34.5 26 34.9 26.3C35.1 25.8 36 25.4 36.5 25.7C37.4 26.2 37.7 25.7 38.4 26.2C39.1 26.7 38.6 27.7 38.5 27.8Z" fill="url(#paint7_linear)"/>
<path d="M11.3 12.2C7.99997 17.4 14 22.5 24.6 23.6C35.2 24.7 46.6 21.4 50 16.2C53.4 11 47.3 5.99999 36.7 4.89999C26.1 3.79999 14.6 7.09999 11.3 12.2Z" fill="url(#paint8_linear)"/>
<path d="M11.3 11.4C7.99997 16.5 14 21.6 24.6 22.7C35.2 23.8 46.6 20.5 50 15.4C53.4 10.3 47.3 5.09999 36.7 3.99999C26.1 2.89999 14.6 6.19999 11.3 11.4Z" fill="url(#paint9_linear)"/>
<path d="M19.3999 11.8C20.1999 13.7 23.1999 15.2 27.3999 15.6C33.5999 16.2 40.0999 14.3 41.9999 11.4C41.9999 -4.10004 19.3999 -3.70004 19.3999 11.8Z" fill="url(#paint10_linear)"/>
<path d="M27.3999 12.9C33.3999 13.5 39.6999 11.8 41.7999 9C41.8999 9.8 41.9999 10.6 41.9999 11.4C40.0999 14.4 33.4999 16.3 27.3999 15.6C23.0999 15.2 20.1999 13.6 19.3999 11.8C19.3999 11 19.4999 10.2 19.5999 9.5C20.5999 11.2 23.3999 12.5 27.3999 12.9Z" fill="url(#paint11_linear)"/>
<path opacity="0.25" d="M37.3001 10.5999C35.3001 11.3999 32.2001 11.7999 28.9001 10.8999C26.0001 10.0999 24.6001 6.69991 26.2001 4.09991C29.5001 -1.20009 38.0001 -8.96454e-05 39.2001 7.39991C39.5001 8.79991 38.7001 10.0999 37.3001 10.5999Z" fill="#5DE8CE"/>
</g>
<defs>
<linearGradient id="paint0_linear" x1="31.9432" y1="56.1226" x2="10.7193" y2="7.79195" gradientUnits="userSpaceOnUse">
<stop stop-color="#0C1725"/>
<stop offset="1" stop-color="#0C1725" stop-opacity="0"/>
</linearGradient>
<linearGradient id="paint1_linear" x1="51.2598" y1="33.7393" x2="5.60485" y2="52.8468" gradientUnits="userSpaceOnUse">
<stop stop-color="#57FFB6"/>
<stop offset="0.9759" stop-color="#00B3BF"/>
</linearGradient>
<linearGradient id="paint2_linear" x1="51.2108" y1="33.622" x2="5.55595" y2="52.7294" gradientUnits="userSpaceOnUse">
<stop stop-color="#57FFB6"/>
<stop offset="0.9759" stop-color="#00B3BF"/>
</linearGradient>
<linearGradient id="paint3_linear" x1="49.3967" y1="29.288" x2="3.7418" y2="48.3954" gradientUnits="userSpaceOnUse">
<stop stop-color="#57FFB6"/>
<stop offset="0.9759" stop-color="#00B3BF"/>
</linearGradient>
<linearGradient id="paint4_linear" x1="10.5773" y1="42.8187" x2="47.646" y2="42.8187" gradientUnits="userSpaceOnUse">
<stop offset="0.0297353" stop-color="#00515E"/>
<stop offset="1" stop-color="#00A8C2"/>
</linearGradient>
<linearGradient id="paint5_linear" x1="21.4726" y1="26.7625" x2="34.5322" y2="26.7625" gradientUnits="userSpaceOnUse">
<stop offset="0.0046274" stop-color="#A2B5B3"/>
<stop offset="0.574" stop-color="#BCD3D0"/>
<stop offset="1" stop-color="white"/>
</linearGradient>
<linearGradient id="paint6_linear" x1="20.3668" y1="20.3407" x2="39.6201" y2="20.3407" gradientUnits="userSpaceOnUse">
<stop stop-color="#C5D4D2"/>
<stop offset="0.3407" stop-color="#DAEFEC"/>
</linearGradient>
<linearGradient id="paint7_linear" x1="30.1514" y1="28.2769" x2="38.7414" y2="28.2769" gradientUnits="userSpaceOnUse">
<stop stop-color="#919191"/>
<stop offset="1" stop-color="#C3DBD3"/>
</linearGradient>
<linearGradient id="paint8_linear" x1="10.3747" y1="14.2314" x2="50.9274" y2="14.2314" gradientUnits="userSpaceOnUse">
<stop offset="0.0240785" stop-color="#00B3BF"/>
<stop offset="1" stop-color="#68E0C9"/>
</linearGradient>
<linearGradient id="paint9_linear" x1="10.3747" y1="13.3483" x2="50.9274" y2="13.3483" gradientUnits="userSpaceOnUse">
<stop stop-color="#299691"/>
<stop offset="0.9564" stop-color="#33B9B2"/>
</linearGradient>
<linearGradient id="paint10_linear" x1="19.3688" y1="7.88916" x2="42.0038" y2="7.88916" gradientUnits="userSpaceOnUse">
<stop offset="0.0240785" stop-color="#00B3BF"/>
<stop offset="1" stop-color="#68E0C9"/>
</linearGradient>
<linearGradient id="paint11_linear" x1="19.3688" y1="12.3864" x2="42.0038" y2="12.3864" gradientUnits="userSpaceOnUse">
<stop stop-color="#2FADA8"/>
<stop offset="0.9564" stop-color="#93F2EE"/>
</linearGradient>
<clipPath id="clip0">
<rect width="51.2" height="60.5" fill="white"/>
</clipPath>
</defs>
</svg>
